HIERARCHY
ROOT Hips
{
    OFFSET 0.000000 0.000000 0.000000
    CHANNELS 6 Xposition Yposition Zposition Zrotation Xrotation Yrotation
    JOINT Spine
    {
        OFFSET -0.000000 7.246840 0.000000
        CHANNELS 3 Zrotation Xrotation Yrotation
        JOINT Spine1
        {
            OFFSET -0.000000 20.289354 0.000000
            CHANNELS 3 Zrotation Xrotation Yrotation
            JOINT Neck
            {
                OFFSET -0.000000 20.206032 1.836912
                CHANNELS 3 Zrotation Xrotation Yrotation
                JOINT Head
                {
                    OFFSET -0.000000 12.372654 -1.767522
                    CHANNELS 3 Zrotation Xrotation Yrotation
                    End Site
                    {
                        OFFSET -0.000000 22.094025 0.000000
                    }
                }
            }
            JOINT LeftShoulder
            {
                OFFSET 3.465871 17.201674 -0.568930
                CHANNELS 3 Zrotation Xrotation Yrotation
                JOINT LeftArm
                {
                    OFFSET 14.070313 0.000000 0.000000
                    CHANNELS 3 Zrotation Xrotation Yrotation
                    JOINT LeftForeArm
                    {
                        OFFSET 26.549477 0.000000 0.000000
                        CHANNELS 3 Zrotation Xrotation Yrotation
                        JOINT LeftHand
                        {
                            OFFSET 18.880413 0.000000 0.000000
                            CHANNELS 3 Zrotation Xrotation Yrotation
                            End Site
                            {
                                OFFSET 13.256415 0.000000 0.000000
                            }
                        }
                    }
                }
            }
            JOINT RightShoulder
            {
                OFFSET -3.526370 17.201674 -0.568930
                CHANNELS 3 Zrotation Xrotation Yrotation
                JOINT RightArm
                {
                    OFFSET -14.070313 0.000000 0.000000
                    CHANNELS 3 Zrotation Xrotation Yrotation
                    JOINT RightForeArm
                    {
                        OFFSET -26.549477 0.000000 0.000000
                        CHANNELS 3 Zrotation Xrotation Yrotation
                        JOINT RightHand
                        {
                            OFFSET -18.880413 0.000000 0.000000
                            CHANNELS 3 Zrotation Xrotation Yrotation
                            End Site
                            {
                                OFFSET -13.256415 0.000000 0.000000
                            }
                        }
                    }
                }
            }
        }
    }
    JOINT LeftUpLeg
    {
        OFFSET 8.837609 0.000000 0.000000
        CHANNELS 3 Zrotation Xrotation Yrotation
        JOINT LeftLeg
        {
            OFFSET -0.000000 -41.345005 0.000000
            CHANNELS 3 Zrotation Xrotation Yrotation
            JOINT LeftFoot
            {
                OFFSET -0.000000 -35.500874 0.000000
                CHANNELS 3 Zrotation Xrotation Yrotation
                JOINT LeftToeBase
                {
                    OFFSET -0.000000 -5.744446 13.256415
                    CHANNELS 3 Zrotation Xrotation Yrotation
                    End Site
                    {
                        OFFSET -0.000000 0.000000 3.535044
                    }
                }
            }
        }
    }
    JOINT RightUpLeg
    {
        OFFSET -8.837609 0.000000 0.000000
        CHANNELS 3 Zrotation Xrotation Yrotation
        JOINT RightLeg
        {
            OFFSET -0.000000 -41.345005 0.000000
            CHANNELS 3 Zrotation Xrotation Yrotation
            JOINT RightFoot
            {
                OFFSET -0.000000 -35.500874 0.000000
                CHANNELS 3 Zrotation Xrotation Yrotation
                JOINT RightToeBase
                {
                    OFFSET -0.000000 -5.744446 13.256415
                    CHANNELS 3 Zrotation Xrotation Yrotation
                    End Site
                    {
                        OFFSET -0.000000 0.000000 3.535044
                    }
                }
            }
        }
    }
}
MOTION
Frames:    4
Frame Time:    0.010000
28.912968    82.272079    41.891174    -0.902205    7.340858    108.977722    -1.435789    6.590409    1.122722    -9.036013    26.373981    3.161425    5.915441    26.280426    -7.295825    -0.725859    -13.190558    -7.194802    8.723007    -4.061996    -1.367120    -70.722397    39.479382    -21.275871    8.809601    -14.372621    -12.121291    -35.954716    -12.595212    -2.743974    2.627520    -5.400336    25.975771    37.170139    32.009945    49.333397    -12.800251    -4.831007    21.874256    9.804161    -1.312773    12.077000    -3.833552    -19.704073    -8.037935    -0.070380    61.637463    -12.496959    -3.883649    4.246559    -9.238676    -0.433552    -5.567934    0.628654    -7.095070    -9.196360    -3.539562    1.986728    11.773289    3.213639    0.799672    -4.182121    -6.016879    -0.884046    1.221570    1.564819    
29.302320    82.311783    41.891598    -0.941628    7.417494    109.128754    -1.540850    6.760261    1.177724    -9.113831    26.279305    3.218425    5.899331    26.296715    -7.243113    -0.661281    -13.143523    -7.123997    8.707188    -4.009464    -1.256442    -70.506592    39.638916    -21.213612    8.725224    -14.428452    -12.334358    -36.008041    -12.622161    -2.809135    2.623029    -5.427610    26.021694    37.126339    32.141293    49.465656    -13.296072    -5.147629    22.514181    10.478101    -1.362009    12.315265    -4.072519    -20.399790    -8.024830    -0.007718    61.184204    -12.170652    -3.772629    4.478104    -8.812441    -0.433552    -5.567934    0.628654    -7.102846    -8.879256    -3.625834    2.030301    11.692985    2.901579    0.547819    -4.612129    -5.787138    -0.491619    1.314579    0.869371    
29.693518    82.348991    41.896023    -0.980366    7.435800    109.349007    -1.606409    6.849447    1.222775    -9.146920    26.288483    3.266931    5.867764    26.239458    -7.217126    -0.555775    -13.035286    -7.076306    8.706179    -3.979110    -1.181416    -70.324081    39.724392    -21.221695    8.664915    -14.466785    -12.527331    -36.115379    -12.619881    -2.903424    2.580210    -5.473389    25.981651    37.153728    32.297382    49.565022    -13.530251    -5.649774    23.312361    10.339766    -1.708547    12.608455    -4.237068    -21.052128    -8.124678    -0.162522    60.494957    -10.982732    -3.325884    4.429670    -9.322441    -0.433552    -5.567934    0.628654    -7.037250    -8.543852    -3.655166    2.041105    11.599414    2.910082    0.378168    -4.625380    -5.941682    -0.656346    0.653137    1.168804    
30.087048    82.382980    41.884678    -1.019551    7.478385    109.563026    -1.679046    6.946420    1.245747    -9.189807    26.257557    3.291631    5.749088    26.323051    -7.137928    -0.395214    -13.080956    -6.960339    8.719593    -3.905911    -1.111485    -70.172142    39.803234    -21.217167    8.614072    -14.501422    -12.771029    -36.260006    -12.596957    -3.032333    2.553743    -5.441165    25.975327    37.326653    32.352913    49.553158    -13.703197    -6.059858    24.166689    10.388378    -1.941864    12.933377    -4.442967    -21.671726    -8.144833    0.030748    59.780411    -11.292882    -2.900104    4.163697    -8.710235    -0.434556    -3.340916    0.621027    -7.022608    -8.167354    -3.818772    2.059427    11.458288    3.000394    0.235878    -4.783966    -6.117143    -0.770242    0.711054    1.370772    
